<svg xmlns="http://www.w3.org/2000/svg" width="126.242" height="72.844" viewBox="0 0 126.242 72.844"><path d="M145.145,67.474c-.216-3.606-.7-6.7-.717-6.831L143.857,57l-3.44,1.327c-.123.047-3.043,1.178-6.274,2.794-6.346,3.174-8.1,5.3-8.862,6.628a10.726,10.726,0,0,0,1.158,12.35,25.183,25.183,0,0,1-14.49,7.146l-.148.02V64.59a24.969,24.969,0,0,0,14.074-9.536,11.566,11.566,0,0,0,13.182-5.35c1.731-3,1.635-8.3,1.412-12.032-.239-3.994-.771-7.42-.794-7.564l-.571-3.642-3.44,1.327c-.136.052-3.369,1.3-6.947,3.094-3.341,1.671-7.983,4.24-9.715,7.239a11.6,11.6,0,0,0,1.733,13.865,19.025,19.025,0,0,1-8.935,6.4V34.316a12.654,12.654,0,0,0,9.658-12.276c0-1.046,0-4.227-5.321-12.29-2.465-3.735-4.895-6.753-5-6.88L108.825,0,106.51,2.869c-.1.127-2.532,3.146-5,6.88-5.321,8.063-5.321,11.245-5.321,12.29a12.654,12.654,0,0,0,9.658,12.276V58.387a19.025,19.025,0,0,1-8.935-6.4,11.6,11.6,0,0,0,1.733-13.865c-1.731-3-6.373-5.567-9.715-7.239-3.578-1.79-6.812-3.042-6.948-3.094l-3.44-1.327-.571,3.642c-.022.144-.555,3.57-.794,7.564C76.959,41.4,76.863,46.7,78.594,49.7a11.619,11.619,0,0,0,10.035,5.791h0a11.525,11.525,0,0,0,3.147-.441A24.97,24.97,0,0,0,105.85,64.59V87.266l-.148-.02A25.183,25.183,0,0,1,91.213,80.1,10.726,10.726,0,0,0,92.37,67.75c-.765-1.325-2.516-3.454-8.862-6.628-3.231-1.616-6.151-2.747-6.274-2.794L73.794,57l-.571,3.642c-.02.13-.5,3.225-.717,6.831-.424,7.083.544,9.664,1.309,10.989A10.75,10.75,0,0,0,83.1,83.82h0a10.675,10.675,0,0,0,3.013-.436,31.107,31.107,0,0,0,18.8,9.761l.94.126v32.971H111.8V93.271l.939-.126a31.107,31.107,0,0,0,18.8-9.761,10.7,10.7,0,0,0,12.3-4.921c.765-1.325,1.733-3.906,1.31-10.989Z" transform="translate(0 145.248) rotate(-90)" fill="#94de1d"/></svg>